<?xml version="1.0" encoding="UTF-8"?>
<svg width="16px" height="16px" viewBox="0 0 16 16" version="1.1" xmlns="http://www.w3.org/2000/svg" xmlns:xlink="http://www.w3.org/1999/xlink">
    <title>Artboard Copy 9</title>
    <g id="Artboard-Copy-9" stroke="none" stroke-width="1" fill="none" fill-rule="evenodd">
        <path d="M8,1.5 C9.23996723,1.5 10.3613094,2.02974515 11.1734689,2.88251201 C11.994243,3.74432424 12.5,4.93542231 12.5,6.24999624 C12.5,7.91349092 12.0022724,8.58202241 9.84212025,11.8132433 C9.34919898,12.5505698 8.771657,13.414481 8.0964211,14.4423173 C7.228343,13.414481 6.65080102,12.5505698 6.15787975,11.8132433 C3.9977276,8.58202241 3.5,7.91349092 3.5,6.24999624 C3.5,4.93542231 4.00575698,3.74432424 4.82653112,2.88251201 C5.63869062,2.02974515 6.76003277,1.5 8,1.5 Z M8,3.5 C7.30964661,3.5 6.68464632,3.77982282 6.23223457,4.23223457 C5.77982282,4.68464632 5.5,5.30964661 5.5,6 C5.5,6.69035339 5.77982282,7.31535368 6.23223457,7.76776543 C6.68464632,8.22017718 7.30964661,8.5 8,8.5 C8.69035339,8.5 9.31535368,8.22017718 9.76776543,7.76776543 C10.2201772,7.31535368 10.5,6.69035339 10.5,6 C10.5,5.30964661 10.2201772,4.68464632 9.76776543,4.23223457 C9.31535368,3.77982282 8.69035339,3.5 8,3.5 Z" id="ï…" stroke="#FFFFFF" fill="#FFFFFF"></path>
    </g>
</svg>