<?xml version="1.0" encoding="UTF-8"?>
<svg width="16px" height="16px" viewBox="0 0 16 16" version="1.1" xmlns="http://www.w3.org/2000/svg" xmlns:xlink="http://www.w3.org/1999/xlink">
    <title>Artboard Copy 8</title>
    <g id="Artboard-Copy-8" stroke="none" stroke-width="1" fill="none" fill-rule="evenodd">
        <path d="M8.51386515,14.7175271 C12.2976634,8.95788005 13,8.3667588 13,6.24999624 C13,3.3504927 10.7614339,1 8,1 C5.23856608,1 3,3.3504927 3,6.24999624 C3,8.3667588 3.70233663,8.95788005 7.48613485,14.7175271 C7.73442078,15.0941443 8.26555379,15.094171 8.51386515,14.7175271 Z M8,8 C6.89543457,8 6,7.10456543 6,6 C6,4.89543457 6.89543457,4 8,4 C9.10456543,4 10,4.89543457 10,6 C10,7.10456543 9.10456543,8 8,8 Z" id="ï…" stroke="#212529" fill="#B8BFC6" fill-rule="nonzero"></path>
    </g>
</svg>